<svg id="Layer_1" data-name="Layer 1" xmlns="http://www.w3.org/2000/svg" viewBox="0 0 472.19 100.32"><defs><style>.cls-1,.cls-2{fill:#c8e6c9;}.cls-2{font-size:81.25px;font-family:Byom-Bold, Byom;font-weight:700;letter-spacing:0.02em;}.cls-3{letter-spacing:0.1em;}</style></defs><title>farmis_logo_l</title><path class="cls-1" d="M47.73,64.32a7.86,7.86,0,0,1,.5,1.29c.7,9.38-.12,10.26-9.57,10.27-4.8,0-4.8,0-4.8,4.86,0,2.51-.06,5,0,7.52.32,8.91,5.21,15.19,13.89,17.46a24.41,24.41,0,0,0,15.73-.89c7.2-3,11-8.41,11.54-16.09.22-3.22,0-6.47.06-9.7,0-2.19-.88-3.23-3.21-3.2a68,68,0,0,1-7.82-.38c-2.34-.24-3.48-1.67-3.4-4.06.06-2.07,0-4.15,0-7,6.56,5.51,13.9,3.26,20.84,3.84.92.08,2.49,1.15,2.5,1.78.13,7.09.43,14.21-.12,21.27-.84,10.65-7.47,17-17.07,20.81C54.39,117,39.43,114,31.13,104.91A22.8,22.8,0,0,1,24.78,89c0-6,0-12.11-.07-18.16,0-2,.66-2.85,2.72-2.77s4.2-.17,6.29-.06C38.7,68.3,43.62,68.44,47.73,64.32Z" transform="translate(-20.81 -21.08)"/><path class="cls-1" d="M56.6,47.72,55,36.2H53.88C53.33,40,52.77,43.73,52.14,48c-5.37-3.42-8.45-7.5-8.4-13.3a14.09,14.09,0,0,1,8-13.17,7.41,7.41,0,0,1,6.18.43c9.69,6.12,9.45,19.11.11,25.27A7.23,7.23,0,0,1,56.6,47.72Z" transform="translate(-20.81 -21.08)"/><path class="cls-1" d="M67.25,60.46,79.89,47.64l-.74-.92L62.9,57.43a20.25,20.25,0,0,1,0-4.08c1.89-7.7,8.59-12.9,17-13.32l.94,0c7.32-.12,9.16,2.6,6.57,9.66C84.73,57.07,75.88,61.93,67.25,60.46Z" transform="translate(-20.81 -21.08)"/><path class="cls-1" d="M45.2,56.9,30,46.84l-.86.93L41.31,60.26C30.84,63.31,19,52.93,21,42.72a3.72,3.72,0,0,1,2.31-2.42c8.59-1.59,18.1,2,21.53,10.19.77,1.84.86,3.95,1.27,5.94Z" transform="translate(-20.81 -21.08)"/><path class="cls-1" d="M66.59,82.61c2.31,8.28.17,13.53-6.5,16.26C66.23,95,67.05,89.08,66.59,82.61Z" transform="translate(-20.81 -21.08)"/><text class="cls-2" transform="translate(83.19 76.96) scale(1.09 1)">F<tspan class="cls-3" x="52.16" y="0">ARMIS</tspan></text></svg>